<svg xmlns="http://www.w3.org/2000/svg" viewBox="0 0 500 500"><g id="freepik--character-1--inject-11"><g id="freepik--character--inject-11"><g id="freepik--bottom--inject-11"><path d="M43.28,382.19c.92-12-.6-20.11.45-38.89h0c.09-4.81.28-10,.61-14.55,1.14-15.41,3.64-20.68,3.87-23.65,0,0,1.22-29.54,2.28-63.26.5-15.86,5.32-20.66,9.18-29.08h45.82c5.12,20.77,8.39,71.58,8.24,93-.08,10.92-3.71,62.63-3.8,64-.33,4.76.55,7.47,1.48,9.27,2.68,5.13,9.33,7.93,14.48,11.59-.75,1.87-6.93,1.8-10,.38A78.62,78.62,0,0,1,104.47,384c-4.22-3-9.63-5.37-9.69-9.91a5.08,5.08,0,0,0-.15-.81c-.08-2.65-6.25-35.39-6.79-44.45-.46-7.8.54-21,.54-21l-7.09-38.52s-4.05,25.07-7.35,38.39c-2.68,10.85-7.1,29.36-10.11,42.71h0c-2.9,15.37-7,25.19-7.79,32.89-.22,1.84-2.4,19.88-3.31,24s-10.35,4.24-11-2.87C41.37,399.72,43.11,384.45,43.28,382.19Z" style="fill:#ffa8a7"></path><path d="M134.64,395.38c.27,0,.69,2.74-.72,3.92-1.62,1.37-6.41,3.63-12.78,2.91s-9.84-2.56-12.41-4.56-6.17-4.83-9-5.41c-2.68-.53-5.6-1.66-6.46-2.43s-.79-4.28-.79-4.28Z" style="fill:#263238"></path><path d="M94.5,372s-.48,0-.64.83c-.18,1-.36,3.77-.76,5.36a27,27,0,0,0-.53,8.51c.37,1.79,4.74,3,7.54,4a36,36,0,0,1,9.08,5.34,27.1,27.1,0,0,0,13.48,4.63c6.33,0,10.41-1.66,11.65-3.84,1.54-2.7.29-4.24-7-7.38-1.38-.59-6.25-3.27-7.91-4.24a37.58,37.58,0,0,1-5-3.46,7.54,7.54,0,0,1-1.5-1.43,10,10,0,0,1-1-1.75c-.55-1.25-.94-2.55-1.47-3.81A2.39,2.39,0,0,0,110,374a2.08,2.08,0,0,0-1.73-.52c-.83,0-1.65,0-2.47.15a16.36,16.36,0,0,0-4.72,1.39c-.43.2-.86.37-1,.8a4.71,4.71,0,0,0-.19,1.63c0,.4,0,.81,0,1.21,0,.18.08.49-.18.42s-.52-.67-.61-.88c-.21-.45-.34-.93-.57-1.37a7.34,7.34,0,0,0-.92-1.46,7.62,7.62,0,0,0-1.16-1.11c-.4-.29-.9-.43-1.26-.75A2.78,2.78,0,0,1,94.5,372Z" style="fill:#37474f"></path><path d="M128.48,390c-9.16.7-12,6.12-12.33,9.46a22.77,22.77,0,0,0,6.52,1.24c6.33,0,10.67-1.66,11.91-3.84C136,394.29,135,392.26,128.48,390Z" style="fill:#fafafa"></path><path d="M114.74,390.2a.47.47,0,0,1-.28-.09.42.42,0,0,1-.07-.6,11.06,11.06,0,0,1,8.25-3.2.42.42,0,0,1,.4.47.44.44,0,0,1-.49.38,10.23,10.23,0,0,0-7.46,2.88A.44.44,0,0,1,114.74,390.2Z" style="fill:#f0f0f0"></path><path d="M110.77,388.05a.47.47,0,0,1-.28-.09.4.4,0,0,1-.07-.6,11,11,0,0,1,8.25-3.2.42.42,0,0,1,.4.47.44.44,0,0,1-.49.38,10.17,10.17,0,0,0-7.46,2.88A.48.48,0,0,1,110.77,388.05Z" style="fill:#f0f0f0"></path><path d="M107.09,385.59a.46.46,0,0,1-.29-.1.42.42,0,0,1-.07-.6A11,11,0,0,1,115,381.7a.42.42,0,1,1-.08.84,10.26,10.26,0,0,0-7.47,2.89A.48.48,0,0,1,107.09,385.59Z" style="fill:#f0f0f0"></path><path d="M103.48,383.12a.47.47,0,0,1-.28-.09.41.41,0,0,1-.08-.6c1.73-2.13,5.68-3.56,9-3.25a.43.43,0,1,1-.08.85c-3-.28-6.69,1-8.23,2.92A.42.42,0,0,1,103.48,383.12Z" style="fill:#f0f0f0"></path><path d="M55.7,410.54c-.25,4.12-.92,6.85-2.46,9.26s-4.42,3.18-7.35,2.47-6.69-2.6-7.53-6.15-1.33-6-.66-9.81Z" style="fill:#263238"></path><path d="M43.38,380.72c-1.2.09-1.56,5.62-2.26,11.15-.74,5.94-2.6,8.39-3.27,13.26-.76,5.56.2,8,2.25,11.4s9.28,6.66,12.85,1.85c2.91-3.93,3-8.28,2.76-13.83a117.82,117.82,0,0,1,.39-14.07c.23-4.16,1.2-8.36.15-8.82-.08.61-.16,1.39-.24,2a9.84,9.84,0,0,1-.39,2.22c-.12.31-.39.63-.5.13a3,3,0,0,1,0-1c.17-1.53-.64-1.65-1.07-1.77a55.44,55.44,0,0,0-5.61-.76c-.92-.06-4.1-.19-4.52.31a3.34,3.34,0,0,0-.4,1.61c-.1.83-.31,1.45-.33,1.18a24.49,24.49,0,0,1,.08-2.53c0-.36.07-.85.08-1.21S43.36,381.07,43.38,380.72Z" style="fill:#37474f"></path><path d="M37.52,408.35a13.36,13.36,0,0,0,2.25,8.45c2,3.36,9.87,6.67,13.44,1.85,1.77-2.39,2.25-5.22,2.49-8.11C53.56,406.83,40.89,405.19,37.52,408.35Z" style="fill:#fafafa"></path><path d="M53.07,404.49a.42.42,0,0,1-.15,0c-.05,0-5.64-2.22-11.08-1a.44.44,0,0,1-.53-.32.42.42,0,0,1,.33-.51,22,22,0,0,1,11.66,1.08.42.42,0,0,1,.22.57A.45.45,0,0,1,53.07,404.49Z" style="fill:#f0f0f0"></path><path d="M42.11,399.29a.48.48,0,0,1-.38-.29.43.43,0,0,1,.28-.54c5.42-1.75,11.42.87,11.65,1a.4.4,0,0,1,.19.57.47.47,0,0,1-.6.18c-.06,0-5.91-2.57-11-.93A.58.58,0,0,1,42.11,399.29Z" style="fill:#f0f0f0"></path><path d="M42.31,395.38a.45.45,0,0,1-.38-.28.43.43,0,0,1,.27-.55c5.95-2,11.65.84,11.87,1a.42.42,0,0,1,.15.58.46.46,0,0,1-.62.15c-.05,0-5.56-2.77-11.1-.88A.41.41,0,0,1,42.31,395.38Z" style="fill:#f0f0f0"></path><path d="M42.6,391.53a.44.44,0,0,1-.37-.27.42.42,0,0,1,.26-.55c5.58-2,11.71,1,11.95,1.07a.43.43,0,0,1,.16.59.46.46,0,0,1-.61.15c-.05,0-6-2.86-11.19-1A.44.44,0,0,1,42.6,391.53Z" style="fill:#ebebeb"></path><path d="M58.44,212.9C53,222.33,48,228.78,47,257.73c-1,28-1.52,41.68-1.64,45.06S43.24,311.7,42,328.4c-1.11,14.53,1,44.88,1,44.88s2.24,3.29,8,3.92,7.58-2,7.58-2,10.5-40.57,12.84-50.6S81.29,276,81.29,276l5.84,32.26s-1.88,9.19,0,23.8S93,368.27,93,368.27a34.59,34.59,0,0,0,8.82.91,18.13,18.13,0,0,0,8.76-2.3s4.79-49.28,4.79-65.84-3.28-63.45-8.75-88Z" style="fill:#37474f"></path><path d="M86.29,247.1l-5,28.93,5.84,32.26L84.79,276.8l5-26.48c4.19-1,11.82-3.9,13-9.41C96.38,247.35,86.29,247.1,86.29,247.1Z" style="fill:#263238"></path></g><g id="freepik--top--inject-11"><g id="freepik--arm--inject-11"><path d="M132.64,178.23s11.24-7,15.65-10,4.62-4.85,6.48-7.95l8.18-1.43c-.21.62.12,1,2.1.55,4-.92,10.73-7,12.43-8.15s2.17,1.09,1.59,2.76.48,5.77-.5,8.53c-1,2.93-1.69,4.24-5,6.76-3.1,2.34-7.38,4.2-12.66,8.5s-8.31,8.59-16.38,14.77c-7.65,5.86-10.1,8.49-16.05,4.1Z" style="fill:#455a64"></path><path d="M165.47,150.4c-1.26-1.73-2,.15-4.18,2.88s-4.67,3.87-6.52,7l8.18-1.43c.21-.62,1-1.46,1.14-1.91C164.44,156,166.73,152.13,165.47,150.4Z" style="fill:#455a64"></path><path d="M134.21,176.46S120.5,164,115.29,159.39c-4.78-4.2-7.16-6.11-9.94-7.55-3.58-1.85-7-2.06-10.63-2.62l2.22,26s13,11.07,22.85,17.5c4.69,3.07,9.54,6.42,14.09,6.82,2.61-.19,4.77-1.93,9.19-5.23,1.42-1.05,10.68-9.57,10.68-9.57-5.28-2.91-7.82-7.78-8-15.11Z" style="fill:#ebebeb"></path></g><g id="freepik--Chest--inject-11"><path id="freepik--chest--inject-11" d="M69.14,147.58c-9.22,2.07-12,3-16.34,4,0,0-8.11,23-4.21,39,.9,3.68,1.57,13.83,2.19,21.67a94.16,94.16,0,0,1,0,18.35s12.32,8.65,38.09,6c20.24-2.07,22.67-9.61,22.67-9.61s-.49-27.65-1.42-42.58c-1.22-19.62-7.06-31.35-9.34-34-.72-.42-14.45-2.49-14.45-2.49Z" style="fill:#BA68C8"></path><path id="freepik--chest--inject-11" d="M69.14,147.58c-9.22,2.07-12,3-16.34,4,0,0-8.11,23-4.21,39,.9,3.68,1.57,13.83,2.19,21.67a94.16,94.16,0,0,1,0,18.35s12.32,8.65,38.09,6c20.24-2.07,22.67-9.61,22.67-9.61s-.49-27.65-1.42-42.58c-1.22-19.62-7.06-31.35-9.34-34-.72-.42-14.45-2.49-14.45-2.49Z" style="fill:#fff;opacity:0.5"></path></g><g id="freepik--Coat--inject-11"><path d="M69.69,146.28l0,3.76c1.15,5.93,2.64,9.28,3.22,20.82.6,11.76.52,26.86.41,47.8-.13,24.17-1,66.94-1,66.94s-21.69,4.77-30.53-7c0,0,1.49-25.65,2.65-43.51.8-12.32,2.1-24,1.77-27.66-.82-9,.89-17.28,0-27.07-.83-9.1-4-19.81,6.54-28.76Z" style="fill:#f5f5f5"></path><path d="M68.54,190.9c-.53-2.2-1.12-4.37-1.75-6.53s-1.33-4.27-2-6.39-1.37-4.08-2.14-6.09l2.53-8.42.09-.32L65,163l-3.09-3.05c.35-1.46.71-2.92,1-4.39s.72-3.09,1.06-4.64c-.47,1.5-.91,3-1.36,4.51s-.88,3-1.31,4.53l-.06.21.15.16,2.92,3.15-2.6,8.28-.06.2.07.21c.74,2.08,1.52,4.15,2.24,6.24s1.43,4.21,2.13,6.31,1.37,4.24,2,6.39a59.42,59.42,0,0,1,1.6,6.54A48.55,48.55,0,0,0,68.54,190.9Z" style="opacity:0.15"></path><path d="M89.18,148.23c3.8.88,8.2,6.08,11.25,17.08s3.47,24.14,4.11,36.29,2.2,71.55,2.2,71.55a23.51,23.51,0,0,0,7.73-1.13s-2.38-76.1-3.87-91.7c-1.52-15.94-5.21-26.09-9.82-30-3.18-1.14-5-1.81-11.61-3.71Z" style="fill:#f5f5f5"></path><path d="M107.38,188.46c.15-1.69.21-3.39.28-5.09s.08-3.4.11-5.1c.06-3.4,0-6.79,0-10.18v-.21l-.12-.15q-3.16-4.06-6.43-8l.8-2.56.08-.25-.14-.17c-.91-1.07-1.81-2.18-2.74-3.23s-1.85-2.14-2.8-3.18c.81,1.19,4.22,5.49,5,6.58l-.75,2.68-.09.28.17.22q3.15,4.16,6.37,8.21C107.17,171.59,107.38,188.46,107.38,188.46Z" style="opacity:0.15"></path></g><path d="M120.37,101.13A17.27,17.27,0,1,1,97,94.06,17.26,17.26,0,0,1,120.37,101.13Z" style="fill:#455a64"></path><path d="M121.26,99.76c-1.3-2.44-4.22-4-8.43-4.15-8.43-.27-18.87,5.32-23.32,12.49-2.22,3.58-2.53,6.88-1.22,9.31.52,1,3.89,7.28,4.42,8.27,1.31,2.44,4.22,4,8.44,4.14,8.42.27,18.86-5.32,23.31-12.48,2.23-3.58,2.53-6.88,1.23-9.32Z" style="fill:#BA68C8"></path><path d="M117.25,103.88c4.22.13,7.13,1.71,8.44,4.14s1,5.74-1.23,9.32c-4.45,7.16-14.89,12.75-23.31,12.48-4.22-.13-7.13-1.7-8.44-4.14s-1-5.74,1.23-9.32C98.39,109.2,108.82,103.61,117.25,103.88Z" style="opacity:0.2"></path><path d="M135.17,113.62c-1.7-3.18-5.51-5.24-11-5.41-11-.36-24.64,6.94-30.45,16.3-2.9,4.68-3.3,9-1.6,12.17l66.83,124.66c1.7,3.18,5.51,5.24,11,5.42,11,.35,24.64-6.95,30.45-16.31,2.9-4.68,3.3-9,1.6-12.17Z" style="fill:#BA68C8"></path><path d="M135.17,113.62c-1.7-3.18-5.51-5.24-11-5.41-11-.36-24.64,6.94-30.45,16.3-2.9,4.68-3.3,9-1.6,12.17l66.83,124.66c1.7,3.18,5.51,5.24,11,5.42,11,.35,24.64-6.95,30.45-16.31,2.9-4.68,3.3-9,1.6-12.17Z" style="fill:#fff;opacity:0.8"></path><path d="M172.3,260.84a17.53,17.53,0,0,1-2.16.05c-3-.09-5.31-1-6-2.32L97.28,133.91c-.72-1.36-.2-3.71,1.41-6.31,4.28-6.88,14.43-12.8,23.12-13.48a17.53,17.53,0,0,1,2.16-.05c3,.09,5.31,1,6,2.32.35.64,66.48,124,66.83,124.66.72,1.36.19,3.71-1.41,6.31-4.28,6.88-14.43,12.8-23.12,13.48Z" style="fill:#fff"></path><path d="M191,232.87c5.51.18,9.31,2.23,11,5.41s1.3,7.49-1.6,12.17c-5.81,9.36-19.44,16.66-30.45,16.31-5.5-.18-9.31-2.24-11-5.42s-1.31-7.49,1.6-12.16C166.34,239.82,180,232.52,191,232.87Z" style="fill:#BA68C8"></path><path d="M191,232.87c5.51.18,9.31,2.23,11,5.41s1.3,7.49-1.6,12.17c-5.81,9.36-19.44,16.66-30.45,16.31-5.5-.18-9.31-2.24-11-5.42s-1.31-7.49,1.6-12.16C166.34,239.82,180,232.52,191,232.87Z" style="fill:#fff;opacity:0.6000000000000001"></path><path d="M197.69,243.5c-1.27-2.36-4.1-3.89-8.19-4-8.19-.26-18.32,5.16-22.64,12.12-2.16,3.48-2.46,6.68-1.19,9,.51,1,5.67,10.6,6.19,11.55,1.26,2.37,4.09,3.9,8.19,4,8.18.26,18.32-5.17,22.64-12.13,2.15-3.47,2.45-6.68,1.18-9Z" style="fill:#BA68C8"></path><path d="M195.69,251c4.09.13,6.92,1.66,8.18,4s1,5.57-1.18,9c-4.32,7-14.46,12.39-22.64,12.13-4.1-.13-6.93-1.66-8.19-4s-1-5.57,1.19-9C177.36,256.2,187.5,250.77,195.69,251Z" style="fill:#BA68C8"></path><path d="M195.69,251c4.09.13,6.92,1.66,8.18,4s1,5.57-1.18,9c-4.32,7-14.46,12.39-22.64,12.13-4.1-.13-6.93-1.66-8.19-4s-1-5.57,1.19-9C177.36,256.2,187.5,250.77,195.69,251Z" style="opacity:0.2"></path><path d="M195.25,262.5a3.53,3.53,0,0,0-3.18-1.57,11,11,0,0,0-8.78,4.71,3.48,3.48,0,0,0-.46,3.5L205.28,311a3.49,3.49,0,0,0,3.17,1.56,11,11,0,0,0,8.78-4.7,3.48,3.48,0,0,0,.46-3.5C217.49,304,195.44,262.87,195.25,262.5Z" style="fill:#BA68C8"></path><path d="M214.52,302.8a3,3,0,0,1,2.71,5.07,11,11,0,0,1-8.78,4.7,3,3,0,0,1-2.71-5.06A11,11,0,0,1,214.52,302.8Z" style="fill:#BA68C8"></path><path d="M214.52,302.8a3,3,0,0,1,2.71,5.07,11,11,0,0,1-8.78,4.7,3,3,0,0,1-2.71-5.06A11,11,0,0,1,214.52,302.8Z" style="opacity:0.2"></path><path d="M216.45,305.41a2.68,2.68,0,0,0-2.45-1.2,8.54,8.54,0,0,0-6.81,3.64,2.71,2.71,0,0,0-.35,2.71c.15.29,30.72,49.64,30.88,49.93.38.71,3.59-1,3.21-1.72C240.78,358.48,216.61,305.7,216.45,305.41Z" style="fill:#BA68C8"></path><path d="M216.45,305.41a2.68,2.68,0,0,0-2.45-1.2,8.54,8.54,0,0,0-6.81,3.64,2.71,2.71,0,0,0-.35,2.71c.15.29,30.72,49.64,30.88,49.93.38.71,3.59-1,3.21-1.72C240.78,358.48,216.61,305.7,216.45,305.41Z" style="fill:#fff;opacity:0.5"></path><path d="M240.11,358.37a.78.78,0,0,1,.7,1.31,2.86,2.86,0,0,1-2.27,1.22.92.92,0,0,1-.82-.41.9.9,0,0,1,.12-.91A2.82,2.82,0,0,1,240.11,358.37Z" style="fill:#BA68C8"></path><path d="M240.11,358.37a.91.91,0,0,1,.82.4.9.9,0,0,1-.12.91,2.82,2.82,0,0,1-2.27,1.21.78.78,0,0,1-.7-1.31A2.85,2.85,0,0,1,240.11,358.37Z" style="opacity:0.2"></path><path d="M153.35,192.89a8.3,8.3,0,1,1,.09-11.74A8.31,8.31,0,0,1,153.35,192.89Z" style="fill:#BA68C8"></path><path d="M153.35,192.89a8.3,8.3,0,1,1,.09-11.74A8.31,8.31,0,0,1,153.35,192.89Z" style="fill:#fff;opacity:0.8"></path><path d="M150.64,190.13a4.44,4.44,0,1,1,.05-6.27A4.45,4.45,0,0,1,150.64,190.13Z" style="fill:#BA68C8"></path><path d="M150.64,190.13a4.44,4.44,0,1,1,.05-6.27A4.45,4.45,0,0,1,150.64,190.13Z" style="fill:#fff;opacity:0.7000000000000001"></path><path d="M149.57,206.65a7.57,7.57,0,1,1,.09-10.7A7.56,7.56,0,0,1,149.57,206.65Z" style="fill:#BA68C8"></path><path d="M149.57,206.65a7.57,7.57,0,1,1,.09-10.7A7.56,7.56,0,0,1,149.57,206.65Z" style="fill:#fff;opacity:0.8"></path><g style="opacity:0.05"><path d="M140.7,191.69a9.85,9.85,0,0,1,2.15-9,9,9,0,0,1,7.58-2.59,10.68,10.68,0,0,1,2.59.67,8.3,8.3,0,0,0-12.32,10.94Z" style="fill:#BA68C8;opacity:0.5"></path><path d="M143.84,208.81a10.58,10.58,0,0,1-4.1-3.25,9,9,0,0,1-1.69-5.11,13.32,13.32,0,0,1,.14-2,10.4,10.4,0,0,1,.53-2.35,7.56,7.56,0,0,0,5.12,12.7Z" style="fill:#BA68C8;opacity:0.5"></path></g><path d="M138.47,206.63a7.89,7.89,0,0,1,3.62-13,8.83,8.83,0,0,1-.71-.65,8.64,8.64,0,1,1,8.13,2.34c.14.12.26.24.38.36h0a7.9,7.9,0,0,1-11.26,11.08Zm4.61-13a.34.34,0,0,1,.08.29.32.32,0,0,1-.26.25,7.24,7.24,0,1,0,6.52,2,7.42,7.42,0,0,0-.86-.73.34.34,0,0,1-.12-.34.32.32,0,0,1,.27-.24,8,8,0,1,0-9.16-8,7.86,7.86,0,0,0,3.48,6.64Z" style="fill:#BA68C8"></path><g style="opacity:0.7000000000000001"><path d="M138.47,206.63a7.89,7.89,0,0,1,3.62-13,8.83,8.83,0,0,1-.71-.65,8.64,8.64,0,1,1,8.13,2.34c.14.12.26.24.38.36h0a7.9,7.9,0,0,1-11.26,11.08Zm4.61-13a.34.34,0,0,1,.08.29.32.32,0,0,1-.26.25,7.24,7.24,0,1,0,6.52,2,7.42,7.42,0,0,0-.86-.73.34.34,0,0,1-.12-.34.32.32,0,0,1,.27-.24,8,8,0,1,0-9.16-8,7.86,7.86,0,0,0,3.48,6.64Z" style="fill:#fff"></path></g><path d="M147.1,204.14a4,4,0,1,1,.05-5.72A4,4,0,0,1,147.1,204.14Z" style="fill:#BA68C8"></path><path d="M147.1,204.14a4,4,0,1,1,.05-5.72A4,4,0,0,1,147.1,204.14Z" style="fill:#fff;opacity:0.7000000000000001"></path><path d="M120.74,140.69a8.3,8.3,0,1,1-9.9-6.32A8.3,8.3,0,0,1,120.74,140.69Z" style="fill:#BA68C8"></path><path d="M120.74,140.69a8.3,8.3,0,1,1-9.9-6.32A8.3,8.3,0,0,1,120.74,140.69Z" style="fill:#fff;opacity:0.8"></path><path d="M117,141.52a4.44,4.44,0,1,1-5.29-3.38A4.44,4.44,0,0,1,117,141.52Z" style="fill:#BA68C8"></path><path d="M117,141.52a4.44,4.44,0,1,1-5.29-3.38A4.44,4.44,0,0,1,117,141.52Z" style="fill:#fff;opacity:0.7000000000000001"></path><circle cx="123" cy="152.84" r="7.57" transform="translate(-49.25 246.74) rotate(-79.77)" style="fill:#BA68C8"></circle><circle cx="123" cy="152.84" r="7.57" transform="translate(-49.25 246.74) rotate(-79.77)" style="fill:#fff;opacity:0.8"></circle><g style="opacity:0.05"><path d="M113,150.77a9.84,9.84,0,0,1-6.51-6.62,9,9,0,0,1,1.84-7.79,10.48,10.48,0,0,1,2-1.84A8.3,8.3,0,0,0,113,150.77Z" style="fill:#BA68C8;opacity:0.5"></path><path d="M129.17,157.21a10.46,10.46,0,0,1-4.93,1.75,9.07,9.07,0,0,1-5.23-1.29,12.31,12.31,0,0,1-1.61-1.18,11,11,0,0,1-1.71-1.7,7.56,7.56,0,0,0,13.48,2.42Z" style="fill:#BA68C8;opacity:0.5"></path></g><path d="M124.47,160.59a7.89,7.89,0,0,1-9.18-6.05,7.92,7.92,0,0,1,.12-3.9c-.3.1-.61.19-.92.26a8.63,8.63,0,0,1-3.72-16.85,8.63,8.63,0,0,1,10,11.21,4.6,4.6,0,0,1,.5-.13h0a7.9,7.9,0,1,1,3.4,15.42Zm-8.58-10.82a.32.32,0,0,1,.36.44,7.24,7.24,0,1,0,5.19-4.45,8.25,8.25,0,0,0-1.08.34A.33.33,0,0,1,120,146a.32.32,0,0,1-.06-.35,8,8,0,1,0-5.59,4.59,8.66,8.66,0,0,0,1.47-.47Z" style="fill:#BA68C8"></path><g style="opacity:0.7000000000000001"><path d="M124.47,160.59a7.89,7.89,0,0,1-9.18-6.05,7.92,7.92,0,0,1,.12-3.9c-.3.1-.61.19-.92.26a8.63,8.63,0,0,1-3.72-16.85,8.63,8.63,0,0,1,10,11.21,4.6,4.6,0,0,1,.5-.13h0a7.9,7.9,0,1,1,3.4,15.42Zm-8.58-10.82a.32.32,0,0,1,.36.44,7.24,7.24,0,1,0,5.19-4.45,8.25,8.25,0,0,0-1.08.34A.33.33,0,0,1,120,146a.32.32,0,0,1-.06-.35,8,8,0,1,0-5.59,4.59,8.66,8.66,0,0,0,1.47-.47Z" style="fill:#fff"></path></g><path d="M127,152a4.05,4.05,0,1,1-4.82-3.08A4,4,0,0,1,127,152Z" style="fill:#BA68C8"></path><path d="M127,152a4.05,4.05,0,1,1-4.82-3.08A4,4,0,0,1,127,152Z" style="fill:#fff;opacity:0.7000000000000001"></path><path d="M138,134.6a7.68,7.68,0,1,1-8.26-7.06A7.68,7.68,0,0,1,138,134.6Z" style="fill:#BA68C8"></path><path d="M138,134.6a7.68,7.68,0,1,1-8.26-7.06A7.68,7.68,0,0,1,138,134.6Z" style="fill:#fff;opacity:0.8"></path><path d="M131,142.85a7.63,7.63,0,0,0,4.08-1.57,11.34,11.34,0,0,1-5.12-.05,8.43,8.43,0,0,1-5.71-6.13,9.59,9.59,0,0,1,.08-4.61A7.68,7.68,0,0,0,131,142.85Z" style="fill:#BA68C8;opacity:0.05"></path><path d="M131,143.18a8,8,0,1,1,7.37-8.61A8,8,0,0,1,131,143.18Zm-1.19-15.31a7.35,7.35,0,1,0,7.9,6.75A7.36,7.36,0,0,0,129.8,127.87Z" style="fill:#BA68C8"></path><g style="opacity:0.7000000000000001"><path d="M131,143.18a8,8,0,1,1,7.37-8.61A8,8,0,0,1,131,143.18Zm-1.19-15.31a7.35,7.35,0,1,0,7.9,6.75A7.36,7.36,0,0,0,129.8,127.87Z" style="fill:#fff"></path></g><path d="M134.47,134.88a4.11,4.11,0,1,1-4.42-3.78A4.11,4.11,0,0,1,134.47,134.88Z" style="fill:#BA68C8"></path><path d="M134.47,134.88a4.11,4.11,0,1,1-4.42-3.78A4.11,4.11,0,0,1,134.47,134.88Z" style="fill:#fff;opacity:0.7000000000000001"></path><path d="M176.17,206.59a8.37,8.37,0,1,1-9-7.7A8.37,8.37,0,0,1,176.17,206.59Z" style="fill:#BA68C8"></path><path d="M176.17,206.59a8.37,8.37,0,1,1-9-7.7A8.37,8.37,0,0,1,176.17,206.59Z" style="fill:#fff;opacity:0.8"></path><path d="M168.48,215.58a8.33,8.33,0,0,0,4.45-1.71,12.51,12.51,0,0,1-5.58-.06,9.23,9.23,0,0,1-6.23-6.68,10.57,10.57,0,0,1,.09-5,8.37,8.37,0,0,0,7.27,13.48Z" style="fill:#BA68C8;opacity:0.05"></path><path d="M168.5,215.94a8.73,8.73,0,1,1,8-9.38A8.75,8.75,0,0,1,168.5,215.94Zm-1.3-16.69a8,8,0,1,0,8.61,7.36A8,8,0,0,0,167.2,199.25Z" style="fill:#BA68C8"></path><g style="opacity:0.7000000000000001"><path d="M168.5,215.94a8.73,8.73,0,1,1,8-9.38A8.75,8.75,0,0,1,168.5,215.94Zm-1.3-16.69a8,8,0,1,0,8.61,7.36A8,8,0,0,0,167.2,199.25Z" style="fill:#fff"></path></g><path d="M172.29,206.89a4.48,4.48,0,1,1-4.81-4.12A4.48,4.48,0,0,1,172.29,206.89Z" style="fill:#BA68C8"></path><path d="M172.29,206.89a4.48,4.48,0,1,1-4.81-4.12A4.48,4.48,0,0,1,172.29,206.89Z" style="fill:#fff;opacity:0.7000000000000001"></path><path d="M138.62,168a8.37,8.37,0,1,1-9-7.7A8.38,8.38,0,0,1,138.62,168Z" style="fill:#BA68C8"></path><path d="M138.62,168a8.37,8.37,0,1,1-9-7.7A8.38,8.38,0,0,1,138.62,168Z" style="fill:#fff;opacity:0.8"></path><path d="M130.92,177a8.39,8.39,0,0,0,4.45-1.72,12.32,12.32,0,0,1-5.57-.06,9.18,9.18,0,0,1-6.23-6.68,10.28,10.28,0,0,1,.09-5A8.37,8.37,0,0,0,130.92,177Z" style="fill:#BA68C8;opacity:0.05"></path><path d="M131,177.33a8.73,8.73,0,1,1,8-9.38A8.73,8.73,0,0,1,131,177.33Zm-1.3-16.69a8,8,0,1,0,8.61,7.37A8,8,0,0,0,129.65,160.64Z" style="fill:#BA68C8"></path><g style="opacity:0.7000000000000001"><path d="M131,177.33a8.73,8.73,0,1,1,8-9.38A8.73,8.73,0,0,1,131,177.33Zm-1.3-16.69a8,8,0,1,0,8.61,7.37A8,8,0,0,0,129.65,160.64Z" style="fill:#fff"></path></g><path d="M134.74,168.28a4.48,4.48,0,1,1-4.82-4.12A4.47,4.47,0,0,1,134.74,168.28Z" style="fill:#BA68C8"></path><path d="M134.74,168.28a4.48,4.48,0,1,1-4.82-4.12A4.47,4.47,0,0,1,134.74,168.28Z" style="fill:#fff;opacity:0.7000000000000001"></path><path d="M170,231a8.38,8.38,0,1,1-9-7.69A8.38,8.38,0,0,1,170,231Z" style="fill:#BA68C8"></path><path d="M170,231a8.38,8.38,0,1,1-9-7.69A8.38,8.38,0,0,1,170,231Z" style="fill:#fff;opacity:0.8"></path><path d="M162.34,240a8.38,8.38,0,0,0,4.45-1.71,12.51,12.51,0,0,1-5.58-.06,9.22,9.22,0,0,1-6.22-6.68,10.32,10.32,0,0,1,.09-5A8.37,8.37,0,0,0,162.34,240Z" style="fill:#BA68C8;opacity:0.05"></path><path d="M162.37,240.32a8.73,8.73,0,1,1,8-9.39A8.76,8.76,0,0,1,162.37,240.32Zm-1.3-16.7a8,8,0,1,0,8.61,7.37A8,8,0,0,0,161.07,223.62Z" style="fill:#BA68C8"></path><g style="opacity:0.7000000000000001"><path d="M162.37,240.32a8.73,8.73,0,1,1,8-9.39A8.76,8.76,0,0,1,162.37,240.32Zm-1.3-16.7a8,8,0,1,0,8.61,7.37A8,8,0,0,0,161.07,223.62Z" style="fill:#fff"></path></g><circle cx="161.69" cy="231.61" r="4.48" transform="translate(-46.73 40.96) rotate(-12.63)" style="fill:#BA68C8"></circle><circle cx="161.69" cy="231.61" r="4.48" transform="translate(-46.73 40.96) rotate(-12.63)" style="fill:#fff;opacity:0.7000000000000001"></circle><path d="M166.37,192.65a10.37,10.37,0,1,1-11.14-9.52A10.37,10.37,0,0,1,166.37,192.65Z" style="fill:#BA68C8"></path><path d="M166.37,192.65a10.37,10.37,0,1,1-11.14-9.52A10.37,10.37,0,0,1,166.37,192.65Z" style="fill:#fff;opacity:0.5"></path><path d="M156.84,203.79a10.27,10.27,0,0,0,5.51-2.12,15.45,15.45,0,0,1-6.9-.07,11.41,11.41,0,0,1-7.71-8.27,12.88,12.88,0,0,1,.11-6.23,10.36,10.36,0,0,0,9,16.69Z" style="fill:#BA68C8;opacity:0.5"></path><path d="M156,204.27a11,11,0,1,1,.85,0C156.59,204.25,156.3,204.27,156,204.27Zm0-20.73-.79,0a9.92,9.92,0,1,0,10.66,9.12h0a9.91,9.91,0,0,0-9.87-9.15Z" style="fill:#BA68C8"></path><path d="M161.56,193a5.54,5.54,0,1,1-6-5.1A5.53,5.53,0,0,1,161.56,193Z" style="fill:#BA68C8"></path><path d="M155.15,167.79a9.52,9.52,0,0,0-8.45-8.43,2.6,2.6,0,0,1-2.18-3.1,10.4,10.4,0,1,0-10.71,8.61,2.61,2.61,0,0,1,2.47,2.9c-.59,5.64,4.28,11.21,10.46,10.45A9.48,9.48,0,0,0,155.15,167.79Z" style="fill:#BA68C8"></path><path d="M155.15,167.79a9.52,9.52,0,0,0-8.45-8.43,2.6,2.6,0,0,1-2.18-3.1,10.4,10.4,0,1,0-10.71,8.61,2.61,2.61,0,0,1,2.47,2.9c-.59,5.64,4.28,11.21,10.46,10.45A9.48,9.48,0,0,0,155.15,167.79Z" style="fill:#fff;opacity:0.5"></path><path d="M133.58,164.84a12.28,12.28,0,0,1-7.18-9.12,11.26,11.26,0,0,1,3.36-9.45,13.43,13.43,0,0,1,2.68-2,10.39,10.39,0,0,0,1.14,20.6Z" style="fill:#BA68C8;opacity:0.5"></path><path d="M152.8,175.09a13.14,13.14,0,0,1-6.37,1.49,11.37,11.37,0,0,1-6.33-2.32,16.31,16.31,0,0,1-1.84-1.69,13.34,13.34,0,0,1-1.89-2.35,9.46,9.46,0,0,0,16.43,4.87Z" style="fill:#BA68C8;opacity:0.5"></path><path d="M145.63,178.7a9.6,9.6,0,0,1-6.73-2.8,10.14,10.14,0,0,1-3-8.17,2.23,2.23,0,0,0-.52-1.7,2.19,2.19,0,0,0-1.57-.76,10.81,10.81,0,0,1-10.26-9.65,10.8,10.8,0,0,1,9.59-11.88A10.41,10.41,0,0,1,142,147a11,11,0,0,1,3,9.37,2.41,2.41,0,0,0,.43,1.83,2,2,0,0,0,1.39.8,9.88,9.88,0,0,1,6.67,16,9.76,9.76,0,0,1-6.64,3.62A8.77,8.77,0,0,1,145.63,178.7Zm-11.26-34.23a11.65,11.65,0,0,0-1.17.07,10,10,0,0,0,.62,19.92,3,3,0,0,1,2.86,3.36,9.29,9.29,0,0,0,2.79,7.5,8.66,8.66,0,0,0,7.22,2.5,9.08,9.08,0,0,0,8.06-10h0a9.06,9.06,0,0,0-8.08-8,2.83,2.83,0,0,1-2-1.12,3.19,3.19,0,0,1-.58-2.46,10.18,10.18,0,0,0-2.75-8.66A9.63,9.63,0,0,0,134.37,144.47Z" style="fill:#BA68C8"></path><circle cx="134.26" cy="154.47" r="5.56" transform="translate(-70.27 162.03) rotate(-51.12)" style="fill:#BA68C8"></circle><path d="M150.77,168.26a5.07,5.07,0,1,1-5.58-4.5A5.07,5.07,0,0,1,150.77,168.26Z" style="fill:#BA68C8"></path><path d="M145.77,182.07a8.87,8.87,0,1,1-9.53-8.15A8.87,8.87,0,0,1,145.77,182.07Z" style="fill:#BA68C8"></path><path d="M145.77,182.07a8.87,8.87,0,1,1-9.53-8.15A8.87,8.87,0,0,1,145.77,182.07Z" style="fill:#fff;opacity:0.5"></path><path d="M137.62,191.6a8.83,8.83,0,0,0,4.71-1.81,13.1,13.1,0,0,1-5.91-.07,9.76,9.76,0,0,1-6.59-7.07,11.05,11.05,0,0,1,.09-5.33,8.87,8.87,0,0,0,7.7,14.28Z" style="fill:#BA68C8;opacity:0.5"></path><path d="M136.91,192a9.3,9.3,0,1,1,.74,0Zm0-17.74q-.33,0-.66,0a8.43,8.43,0,1,0,.66,0Z" style="fill:#BA68C8"></path><path d="M141.66,182.39a4.74,4.74,0,1,1-5.1-4.36A4.75,4.75,0,0,1,141.66,182.39Z" style="fill:#BA68C8"></path><path d="M124.12,130.48a10.53,10.53,0,1,1-11.31-9.68A10.53,10.53,0,0,1,124.12,130.48Z" style="fill:#BA68C8"></path><path d="M124.12,130.48a10.53,10.53,0,1,1-11.31-9.68A10.53,10.53,0,0,1,124.12,130.48Z" style="fill:#fff;opacity:0.5"></path><path d="M114.45,141.8a10.53,10.53,0,0,0,5.6-2.16,15.69,15.69,0,0,1-7-.07,11.61,11.61,0,0,1-7.83-8.4,13.16,13.16,0,0,1,.11-6.33,10.53,10.53,0,0,0,9.14,17Z" style="fill:#BA68C8;opacity:0.5"></path><path d="M113.61,142.28a10.89,10.89,0,1,1,.87,0Q114,142.28,113.61,142.28Zm0-21.06c-.27,0-.54,0-.8,0a10.09,10.09,0,1,0,10.82,9.27h0a10.07,10.07,0,0,0-10-9.3Z" style="fill:#BA68C8"></path><circle cx="113.63" cy="131.3" r="5.63" transform="translate(-60.01 132.3) rotate(-49.46)" style="fill:#BA68C8"></circle><circle cx="156.52" cy="218.22" r="10.39" transform="translate(-81.64 94.14) rotate(-26.83)" style="fill:#BA68C8"></circle><circle cx="156.52" cy="218.22" r="10.39" transform="translate(-81.64 94.14) rotate(-26.83)" style="fill:#fff;opacity:0.5"></circle><path d="M160.69,214.54a5.55,5.55,0,1,1-7.84-.49A5.55,5.55,0,0,1,160.69,214.54Z" style="fill:#BA68C8"></path><path d="M181.27,217a9.48,9.48,0,1,1-13.38-.83A9.48,9.48,0,0,1,181.27,217Z" style="fill:#BA68C8"></path><path d="M181.27,217a9.48,9.48,0,1,1-13.38-.83A9.48,9.48,0,0,1,181.27,217Z" style="fill:#fff;opacity:0.5"></path><path d="M162,227.07a12.27,12.27,0,0,1-11.13-3.3,11.21,11.21,0,0,1-2.72-9.65,12.9,12.9,0,0,1,1-3.2A10.39,10.39,0,0,0,162,227.07Z" style="fill:#BA68C8;opacity:0.5"></path><path d="M183.57,224.32a13.1,13.1,0,0,1-4.33,4.9,11.37,11.37,0,0,1-6.51,1.77,17.65,17.65,0,0,1-2.49-.31,13.67,13.67,0,0,1-2.89-.83,9.46,9.46,0,0,0,16.22-5.53Z" style="fill:#BA68C8;opacity:0.5"></path><path d="M174.17,233.16a9.88,9.88,0,0,1-9.65-7.69,9.62,9.62,0,0,1-.85.84,10.8,10.8,0,1,1,3.48-10c.16-.16.31-.31.47-.45a9.89,9.89,0,1,1,6.55,17.3Zm-9.4-9,.1,0a.39.39,0,0,1,.3.34,9.07,9.07,0,1,0,3-8h0a9.86,9.86,0,0,0-1,1,.39.39,0,0,1-.43.13.42.42,0,0,1-.29-.35,9.81,9.81,0,0,0-2.45-5.67,10,10,0,1,0,.44,12.68A.4.4,0,0,1,164.77,224.13Zm3.12-8h0Z" style="fill:#BA68C8"></path><path d="M178,219.92a5.07,5.07,0,1,1-7.15-.45A5.07,5.07,0,0,1,178,219.92Z" style="fill:#BA68C8"></path><g id="freepik--head--inject-11"><path d="M62.25,110.82a11.21,11.21,0,0,1,1-1.62A5,5,0,0,1,66.43,107a6.1,6.1,0,0,1,1.45-4.86,12.49,12.49,0,0,1,4.2-3.08,26.14,26.14,0,0,1,10.1-2.72,23.46,23.46,0,0,1,5.23.28,32.14,32.14,0,0,1,5,1.54c1.45.5,2.84,1.21,4.32,1.63a14.43,14.43,0,0,0,5.19.48,4,4,0,0,1-2.44,3.41c.19-.07,1.09,1.6,1.18,1.79a8.1,8.1,0,0,1,.65,2.08,7.51,7.51,0,0,1-.18,4.62,6.72,6.72,0,0,1-2.53,2.73,12.07,12.07,0,0,1-3.86,1.63,13,13,0,0,1-3.61-.25l-12.86-1L75,115.06a14.67,14.67,0,0,1,.13,4.23c-.41,3.78-4.71,7.58-4.71,7.58l.22,5.27c0,4,.08,7.25.08,7.25-2.81-2.46-5.55-7.12-6.84-10.07a36.62,36.62,0,0,1-2.18-6.07,23.68,23.68,0,0,1-.4-9.11A11.82,11.82,0,0,1,62.25,110.82Z" style="fill:#263238"></path><path d="M63.67,134.26c3.89,2,5.72-1.12,5.72-1.12l.39,17c7.39,10.16,27.51,6.36,19.37-1.28l0-4.78a29.72,29.72,0,0,0,3.4-.32c3.47-.51,5.68-3,6.76-6.69,1.6-5.54,2.31-14.42.33-23.91a14.5,14.5,0,0,0-2-5c-.93-1.42-1.94-2.79-3.68-3.28a4,4,0,0,0-3.74.92A10.83,10.83,0,0,1,89,107.36a2.29,2.29,0,0,1-1.08.4c-1.59.22-3.08-.73-4.55-1.4a13.54,13.54,0,0,0-5.13-1.18,7,7,0,0,0-2.33.25,6.37,6.37,0,0,0-2.63,1.73,3.91,3.91,0,0,0-.78,1.08c-1.29,2.87-.08,6,.45,8.93a22.22,22.22,0,0,1,.35,3.81,6.61,6.61,0,0,1-.8,3.2c-.3.54-.83,1.51-1.51,1.65-2.38.47-2.63-1.58-3.69-2.7a4.36,4.36,0,0,0-6.81,1.47A7.11,7.11,0,0,0,63.67,134.26Z" style="fill:#ffa8a7"></path><path d="M74.43,139.39c.77,3.84,5.93,6.44,14.74,6.76v-2.09a40.62,40.62,0,0,1-6.45-.67C78.61,142.66,74.43,139.39,74.43,139.39Z" style="fill:#f28f8f"></path><path d="M83.18,117.63l-3.85,1.61a2.2,2.2,0,0,1,1.16-2.8A2,2,0,0,1,83.18,117.63Z" style="fill:#263238"></path><path d="M97.67,118.71l-4-1.22a2,2,0,0,1,2.55-1.44A2.2,2.2,0,0,1,97.67,118.71Z" style="fill:#263238"></path><path d="M80.73,121.75A1.7,1.7,0,1,0,82.39,120,1.7,1.7,0,0,0,80.73,121.75Z" style="fill:#263238"></path><path d="M93.54,121.59a1.72,1.72,0,0,0,1.74,1.66,1.7,1.7,0,0,0-.08-3.4A1.55,1.55,0,0,0,93.54,121.59Z" style="fill:#263238"></path><path d="M88.2,119.65l1.61,10.11L95,128.51A20.11,20.11,0,0,0,88.2,119.65Z" style="fill:#f28f8f"></path><path d="M84.17,131,90,133.29a3.1,3.1,0,0,1-4,1.91A3.29,3.29,0,0,1,84.17,131Z" style="fill:#b16668"></path><path d="M84.74,132.12A3.24,3.24,0,0,0,84,132a3.23,3.23,0,0,0,2,3.18,2.9,2.9,0,0,0,1,.19A2.88,2.88,0,0,0,84.74,132.12Z" style="fill:#f28f8f"></path><path d="M89,124.87a3.58,3.58,0,0,1-.29.46,4.33,4.33,0,0,1-1.9,1.37,11.38,11.38,0,0,1-2.3.57,17.63,17.63,0,0,1-4.34.34c-1.27-.1-2.47-.15-3.44-1.11A5.47,5.47,0,0,1,75.56,124a17,17,0,0,1-.42-4.62,4.73,4.73,0,0,1,.84-3,4.55,4.55,0,0,1,1.8-1.16c5.7-2.43,12.11-2.63,18.28-2.08,2.11.19,4.69.44,5.35,2.81a16.5,16.5,0,0,1,0,7,3.27,3.27,0,0,1-.93,2.12,5.22,5.22,0,0,1-2.32.85,10.46,10.46,0,0,1-4.66-.41,3.38,3.38,0,0,1-.55-.79c-.23-.36-.47-.7-.73-1s-.78-1-1.35-1-1.07.67-1.33,1.11S89.16,124.51,89,124.87Z" style="fill:#fff;opacity:0.30000000000000004"></path><path d="M81,128.12l-.91,0H80a5.18,5.18,0,0,1-3.61-1.23,6,6,0,0,1-1.25-2.78,17.33,17.33,0,0,1-.44-4.76,4.18,4.18,0,0,1,2.94-4.59c5-2.13,10.87-2.8,18.52-2.12,2.12.19,5,.45,5.77,3.17a17,17,0,0,1,0,7.24,3.66,3.66,0,0,1-1.1,2.42,5.81,5.81,0,0,1-2.6,1h-.14a10.62,10.62,0,0,1-4.74-.46l-.11-.07a2.13,2.13,0,0,1-.53-.69l-.13-.22c-.22-.34-.46-.68-.71-1s-.6-.8-.94-.8h0c-.24,0-.61.36-.92.88-.11.19-.21.38-.31.58s-.17.34-.26.5h0a4.45,4.45,0,0,1-.33.51,4.7,4.7,0,0,1-2.12,1.54,12.48,12.48,0,0,1-2.39.6A21.13,21.13,0,0,1,81,128.12Zm9.7-14.8A31.78,31.78,0,0,0,78,115.62a4.19,4.19,0,0,0-1.62,1,4.33,4.33,0,0,0-.72,2.69,16.2,16.2,0,0,0,.41,4.49,5.31,5.31,0,0,0,1,2.33,4.37,4.37,0,0,0,3,1h.15a16.58,16.58,0,0,0,4.21-.33,11.72,11.72,0,0,0,2.21-.54A3.81,3.81,0,0,0,88.27,125a3.62,3.62,0,0,0,.27-.41h0l.24-.46c.11-.22.22-.44.34-.64.3-.5.92-1.33,1.74-1.35s1.43.76,1.75,1.18.51.71.75,1.07l.16.26a2.09,2.09,0,0,0,.24.38,10,10,0,0,0,4.22.35h.15a4.94,4.94,0,0,0,2.05-.74,2.89,2.89,0,0,0,.75-1.82,16.17,16.17,0,0,0,0-6.82c-.53-1.91-2.54-2.24-4.92-2.46C94.14,113.41,92.37,113.32,90.7,113.32Z" style="fill:#455a64"></path></g><g id="freepik--arm--inject-11"><g id="freepik--arm--inject-11"><path d="M78.9,178.36c3.14-2.66,4.73-3.71,6.24-4.24s6.75-3.11,8.78-3.75c1.29-.41,2,1.64.37,3.18-1.21,1.18-4.46,2.83-5.87,3.73s-4.07,4.56-4.07,4.56Z" style="fill:#37474f"></path><path d="M39.21,164.22c2.83-7.16,5.6-9.29,13-11.69,7.88,6.78,3.47,25.57,3.47,25.57l-4.56,17.78s13.42-3.45,15.55-5,7.71-8.35,9.6-10.4c2.56-2.79,3.94-2.52,5.34-2.4,4.58.4,5.59.72,6.59,1.27a2.07,2.07,0,0,1,1,1.71c1.21.08,3-.07,3.37,1.9a5.79,5.79,0,0,1,.17,1.58,1.28,1.28,0,0,1,.81.4c1.07,1.1-.4,5.22-1.43,6.27-.72.74-1.81.89-3.26.79-1.23-.09-.74-1.37-.74-1.37l-1.7.21c-3.53,2.85-3.39,8-8.2,9.5a34,34,0,0,0-5.89,1.53C62,206,48.86,217.8,39.55,219.19c-9.09,1.35-10.27-4-10.2-9.57C29.45,200.67,36.39,171.35,39.21,164.22Z" style="fill:#455a64"></path><path d="M89.17,181.05l-5.79-.18,5.63-.55A2.18,2.18,0,0,1,89.17,181.05Z" style="fill:#37474f"></path><path d="M92.71,184.53l-6.26-.42,6.22-.3A3.33,3.33,0,0,1,92.71,184.53Z" style="fill:#37474f"></path><path d="M87.53,189.75a2.46,2.46,0,0,0,.7-1.24,20.19,20.19,0,0,0,2.15-.28,7.81,7.81,0,0,0,.81-.29,2.46,2.46,0,0,0,.87-.63,2,2,0,0,1-.79.78,3.81,3.81,0,0,1-.91.38l-.31.78a1.35,1.35,0,0,1,.66.21,1.62,1.62,0,0,1,.59.78,2,2,0,0,0-.67-.64,1.24,1.24,0,0,0-.84-.1,2.72,2.72,0,0,0-1.7,1.12l-1.7.21A13.36,13.36,0,0,0,87.53,189.75Z" style="fill:#37474f"></path></g><path d="M52.8,151.56c2.31,1.34,6.79,9.19,4.05,22.26s-5.57,21.84-5.57,21.84L63.15,192s-1.68,2.91-1.53,8.33c.19,6.89,3.9,7.18,3.9,7.18s-7.48,5-10.92,6.84c-7.15,3.92-15,6.3-20,5.39-5.68-1-5.84-5.44-5.62-11.71s5.72-28.61,7.22-35.11S38.69,155,52.8,151.56Z" style="fill:#ebebeb"></path><path d="M51.28,195.66c-3.93,1.06-11.41,7.43-12.37,9.64,1.13-4.82,6.64-11.43,13.37-13Z" style="fill:#e0e0e0"></path></g></g></g></g></svg>