<?xml version="1.0" encoding="utf-8"?>
<!-- Svg Vector Icons : http://www.onlinewebfonts.com/icon -->
<!DOCTYPE svg PUBLIC "-//W3C//DTD SVG 1.1//EN" "http://www.w3.org/Graphics/SVG/1.1/DTD/svg11.dtd">
<svg version="1.1" xmlns="http://www.w3.org/2000/svg" xmlns:xlink="http://www.w3.org/1999/xlink" x="0px" y="0px" viewBox="0 0 1000 1000" enable-background="new 0 0 1000 1000" xml:space="preserve">
<metadata> Svg Vector Icons : http://www.onlinewebfonts.com/icon </metadata>
<g><g><path d="M812.5,360.4c-47-61.7-110-108-183-133.2c0,0-2.2-0.7-2.2-4.7c0-19.9,0-79.5,0-79.5h24.3c26,0,47.2-21.2,47.2-47.2V57.2c0-26-21.2-47.2-47.2-47.2H348.4c-26,0-47.2,21.2-47.2,47.2v38.6c0,26,21.2,47.2,47.2,47.2h24.3c0,0,0,60,0,81.1c0,2.5-3.5,3.6-3.5,3.6c-73,25.1-134.8,71-181.7,132.7c-52.2,68.7-79.9,150.7-79.9,237.2C107.6,814,283.6,990,500,990c216.4,0,392.4-176,392.4-392.4C892.4,511.1,864.8,429.1,812.5,360.4z M402.6,266l13.8-4.1c0,0,3-0.8,3-4.8c0-21.1,0-120.5,0-156.7c0-1.9-1.7-4.1-5-4.1c-15.9,0-63.6,0-63.6,0c-0.2,0-2.9,0.1-2.9-1.9V59.2c0-2.2,1.2-2.5,2.5-2.5c75.3,0,300.4,0,300.4,0c1,0,1.2,0.7,1.2,1.8v36.8c0,0.2-0.1,0.9-1,0.9c0,0-48.5,0-65.1,0c-4.9,0-5.3,2.9-5.3,7.1c0,35,0.3,129.1,0,152.4c-0.1,5.6,3.2,6.2,3.2,6.2l13.6,4C682.8,291,753.2,348.1,797,421.6c1.5,2.5,2.6,7.6-5.9,7.6H211.5c-12.1,0-9.2-6.4-7.2-9.6C248.1,347,317.9,290.8,402.6,266z M500,943.2c-190.6,0-345.6-155-345.6-345.6c0-40.6,4.4-72,17.9-108.9c0,0,2.4-8.1,9.2-8.1c160.9,0,633.8,0,633.8,0c9,0,11.2,3.9,11.8,5.9c12.1,35.2,18.6,72.6,18.6,111.1C845.6,788.2,690.6,943.2,500,943.2z"/><circle cx="314.8" cy="643.7" r="81.6"/><circle cx="463.8" cy="775.7" r="53.4"/></g><g></g><g></g><g></g><g></g><g></g><g></g><g></g><g></g><g></g><g></g><g></g><g></g><g></g><g></g><g></g></g>
</svg>